<svg width="137" height="33" viewBox="0 0 137 33" fill="none" xmlns="http://www.w3.org/2000/svg">
<path d="M18.058 26.0001C17.748 25.0911 17.426 24.1932 17.094 23.3064C16.761 22.4195 16.44 21.5105 16.129 20.5794H6.41803C6.10803 21.5105 5.78698 22.4306 5.45398 23.3396C5.14398 24.2264 4.83301 25.1133 4.52301 26.0001H0.166016C1.03102 23.5392 1.85101 21.2667 2.62701 19.1826C3.40301 17.0986 4.15698 15.1254 4.88898 13.263C5.64198 11.4007 6.385 9.62706 7.117 7.94206C7.848 6.25706 8.60199 4.59426 9.37799 2.95366H13.336C14.112 4.59426 14.865 6.25706 15.597 7.94206C16.329 9.62706 17.06 11.4007 17.792 13.263C18.546 15.1254 19.311 17.0986 20.087 19.1826C20.885 21.2667 21.716 23.5392 22.581 26.0001H18.058ZM11.274 7.40996C10.764 8.58496 10.176 10.015 9.51099 11.7C8.86799 13.385 8.19197 15.2141 7.48297 17.1873H15.065C14.356 15.2141 13.668 13.3739 13.003 11.6668C12.338 9.95956 11.762 8.54066 11.274 7.40996ZM27.999 17.3868C27.999 19.0718 28.332 20.4131 28.997 21.4108C29.684 22.4084 30.759 22.9073 32.222 22.9073C32.888 22.9073 33.508 22.8075 34.085 22.608C34.683 22.3863 35.16 22.1535 35.515 21.9096V11.9661C35.227 11.8995 34.861 11.8441 34.417 11.7998C33.996 11.7333 33.442 11.7 32.755 11.7C31.269 11.7 30.105 12.2099 29.263 13.2298C28.42 14.2275 27.999 15.6131 27.999 17.3868ZM23.875 17.3203C23.875 15.9457 24.075 14.7041 24.474 13.5956C24.895 12.4649 25.483 11.5116 26.236 10.7356C27.012 9.93736 27.944 9.32766 29.03 8.90646C30.116 8.46306 31.347 8.24136 32.721 8.24136C34.096 8.24136 35.382 8.34116 36.579 8.54066C37.776 8.74016 38.763 8.95076 39.539 9.17256V32.1525H35.515V25.4015C35.049 25.6454 34.473 25.8671 33.786 26.0666C33.12 26.2661 32.378 26.3659 31.557 26.3659C30.316 26.3659 29.218 26.1553 28.265 25.7341C27.312 25.2906 26.514 24.6699 25.871 23.8717C25.228 23.0736 24.729 22.1202 24.374 21.0117C24.042 19.9032 23.875 18.6727 23.875 17.3203ZM58.917 25.468C58.141 25.6675 57.132 25.8671 55.891 26.0666C54.649 26.2883 53.286 26.3992 51.8 26.3992C50.404 26.3992 49.229 26.1996 48.275 25.8006C47.344 25.4015 46.59 24.8472 46.014 24.1378C45.46 23.4283 45.061 22.5858 44.817 21.6103C44.573 20.6126 44.451 19.5263 44.451 18.3512V8.60716H48.475V17.7193C48.475 19.5817 48.741 20.9119 49.273 21.7101C49.827 22.5082 50.781 22.9073 52.133 22.9073C52.621 22.9073 53.131 22.8851 53.663 22.8408C54.217 22.7964 54.627 22.741 54.893 22.6745V8.60716H58.917V25.468ZM70.158 23.1733C71.4 23.1733 72.342 23.1068 72.985 22.9738V18.5175C72.763 18.451 72.442 18.3845 72.02 18.318C71.599 18.2514 71.134 18.2182 70.624 18.2182C70.18 18.2182 69.726 18.2514 69.26 18.318C68.817 18.3845 68.407 18.5064 68.03 18.6838C67.675 18.8611 67.387 19.1161 67.165 19.4487C66.943 19.7591 66.832 20.1581 66.832 20.6459C66.832 21.5992 67.132 22.2643 67.73 22.6412C68.329 22.996 69.138 23.1733 70.158 23.1733ZM69.825 8.17486C71.156 8.17486 72.275 8.34116 73.184 8.67366C74.093 9.00626 74.814 9.47186 75.346 10.0705C75.9 10.6691 76.288 11.4007 76.51 12.2654C76.754 13.1078 76.876 14.039 76.876 15.0589V25.601C76.255 25.7341 75.313 25.8892 74.049 26.0666C72.807 26.2661 71.4 26.3659 69.825 26.3659C68.783 26.3659 67.83 26.2661 66.965 26.0666C66.101 25.8671 65.358 25.5456 64.737 25.1022C64.139 24.6588 63.662 24.0823 63.307 23.3729C62.975 22.6634 62.808 21.7877 62.808 20.7456C62.808 19.748 62.997 18.9055 63.374 18.2182C63.773 17.5309 64.305 16.9766 64.97 16.5554C65.635 16.112 66.4 15.8016 67.265 15.6242C68.152 15.4247 69.072 15.3249 70.025 15.3249C70.468 15.3249 70.934 15.3582 71.422 15.4247C71.909 15.469 72.43 15.5577 72.985 15.6907V15.0256C72.985 14.56 72.929 14.1166 72.818 13.6954C72.708 13.2741 72.508 12.9083 72.22 12.5979C71.954 12.2654 71.588 12.0104 71.122 11.833C70.679 11.6557 70.114 11.567 69.426 11.567C68.495 11.567 67.642 11.6335 66.866 11.7665C66.09 11.8995 65.458 12.0547 64.97 12.2321L64.471 8.97296C64.981 8.79556 65.724 8.61826 66.699 8.44086C67.675 8.26356 68.717 8.17486 69.825 8.17486ZM96.57 22.3752V26.0001H82V2.95366H86.19V22.3752H96.57ZM103.63 26.0001H99.6V8.60716H103.63V26.0001ZM104.06 3.51896C104.06 4.27276 103.81 4.87136 103.33 5.31486C102.84 5.75826 102.26 5.97996 101.6 5.97996C100.91 5.97996 100.32 5.75826 99.83 5.31486C99.35 4.87136 99.1 4.27276 99.1 3.51896C99.1 2.74306 99.35 2.13336 99.83 1.68986C100.32 1.24646 100.91 1.02476 101.6 1.02476C102.26 1.02476 102.84 1.24646 103.33 1.68986C103.81 2.13336 104.06 2.74306 104.06 3.51896ZM115.84 0.193359C116.77 0.193359 117.59 0.282059 118.3 0.459459C119.01 0.614659 119.55 0.758759 119.9 0.891759L119.14 4.21736C118.76 4.03996 118.31 3.89586 117.8 3.78506C117.32 3.67416 116.78 3.61876 116.21 3.61876C115.57 3.61876 115.02 3.71856 114.58 3.91806C114.14 4.09546 113.78 4.35036 113.51 4.68296C113.25 5.01546 113.06 5.42566 112.95 5.91346C112.84 6.37896 112.78 6.88896 112.78 7.44316V8.60716H119.1V11.9661H112.78V26.0001H108.76V7.37666C108.76 5.13746 109.35 3.38596 110.52 2.12226C111.7 0.836359 113.47 0.193359 115.84 0.193359ZM120.79 17.3868C120.79 15.857 121.01 14.5157 121.45 13.3628C121.92 12.2099 122.53 11.2566 123.28 10.5028C124.03 9.72676 124.9 9.15036 125.87 8.77346C126.85 8.37436 127.85 8.17486 128.87 8.17486C131.26 8.17486 133.12 8.91756 134.45 10.403C135.81 11.8885 136.48 14.1055 136.48 17.0542C136.48 17.2759 136.47 17.5309 136.45 17.8191C136.45 18.0852 136.44 18.329 136.42 18.5508H124.94C125.05 19.9475 125.54 21.0339 126.41 21.8098C127.29 22.5636 128.57 22.9405 130.23 22.9405C131.21 22.9405 132.09 22.8519 132.89 22.6745C133.71 22.4971 134.35 22.3087 134.82 22.1091L135.35 25.4015C135.13 25.5123 134.82 25.6343 134.42 25.7673C134.04 25.8782 133.6 25.9779 133.09 26.0666C132.6 26.1775 132.07 26.2661 131.49 26.3327C130.92 26.3992 130.33 26.4324 129.73 26.4324C128.2 26.4324 126.87 26.2107 125.74 25.7673C124.61 25.3017 123.68 24.6699 122.95 23.8717C122.22 23.0514 121.67 22.0981 121.32 21.0117C120.96 19.9032 120.79 18.6949 120.79 17.3868ZM132.46 15.591C132.46 15.0367 132.38 14.5157 132.23 14.0279C132.07 13.518 131.84 13.0857 131.53 12.7309C131.24 12.354 130.87 12.0658 130.43 11.8663C130.01 11.6446 129.5 11.5337 128.9 11.5337C128.28 11.5337 127.74 11.6557 127.27 11.8995C126.8 12.1213 126.41 12.4206 126.07 12.7975C125.76 13.1744 125.52 13.6067 125.34 14.0944C125.16 14.5822 125.04 15.081 124.98 15.591H132.46Z" fill="white"/>
</svg>
