<svg width="516" height="619" viewBox="0 0 516 619" fill="none" xmlns="http://www.w3.org/2000/svg">
<g opacity="0.1">
<path d="M257.158 64.8586V309.5L201.403 277.64C102.408 220.746 40.9631 114.925 40.9631 0H0V279.916C0 370.945 52.3419 455.147 135.406 494.972L258.296 554.142V309.5L314.051 341.36C413.046 398.254 474.491 504.075 474.491 619H515.454V339.084C515.454 248.055 463.112 163.853 380.048 124.028L257.158 64.8586Z" fill="#237ABA"/>
<mask id="mask0_9_123" style="mask-type:alpha" maskUnits="userSpaceOnUse" x="0" y="0" width="516" height="619">
<path d="M257.158 64.8586V309.5L201.403 277.64C102.408 220.746 40.9631 114.925 40.9631 0H0V279.916C0 370.945 52.3419 455.147 135.406 494.972L258.296 554.142V309.5L314.051 341.36C413.046 398.254 474.491 504.075 474.491 619H515.454V339.084C515.454 248.055 463.112 163.853 380.048 124.028L257.158 64.8586Z" fill="white"/>
</mask>
<g mask="url(#mask0_9_123)">
<path d="M124.283 170.053L314.582 -11.3794L707.172 400.395C613.341 544.547 491.275 697.017 460.836 603.068C321.359 432.717 297.232 317.323 124.283 170.053Z" fill="#AAAAAA"/>
</g>
</g>
</svg>
